<?xml version="1.0" encoding="UTF-8" standalone="no"?>
<!DOCTYPE svg PUBLIC "-//W3C//DTD SVG 1.1//EN" "http://www.w3.org/Graphics/SVG/1.1/DTD/svg11.dtd">
<svg xmlns="http://www.w3.org/2000/svg" version="1.1" viewBox="0.00 0.00 820.00 616.00">
<!-- outline strokes removed -->
<!-- background removed -->
<path fill="#1a1f20" d="
  M 819.63 138.66
  A 10.58 10.58 0.0 0 1 809.05 149.24
  L 10.99 149.24
  A 10.58 10.58 0.0 0 1 0.41 138.66
  L 0.41 11.28
  A 10.58 10.58 0.0 0 1 10.99 0.70
  L 809.05 0.70
  A 10.58 10.58 0.0 0 1 819.63 11.28
  L 819.63 138.66
  Z
  M 799.43 21.24
  A 0.41 0.41 0.0 0 0 799.02 20.83
  L 20.84 20.83
  A 0.41 0.41 0.0 0 0 20.43 21.24
  L 20.43 128.76
  A 0.41 0.41 0.0 0 0 20.84 129.17
  L 799.02 129.17
  A 0.41 0.41 0.0 0 0 799.43 128.76
  L 799.43 21.24
  Z"
/>
<rect fill="none" x="20.43" y="20.83" width="779.00" height="108.34" rx="0.41"/>
<path fill="#1a1f20" d="
  M 155.44 220.74
  L 155.47 234.23
  L 155.49 255.56
  L 155.44 269.01
  Q 155.41 434.13 155.44 599.25
  C 155.44 603.47 155.74 607.52 153.94 610.29
  C 150.69 615.28 146.93 615.27 140.76 615.26
  Q 89.84 615.13 54.52 615.24
  Q 47.24 615.27 44.63 609.28
  Q 43.58 606.86 43.59 602.63
  Q 43.67 567.62 43.63 183.75
  C 43.63 177.19 44.25 171.70 51.39 169.67
  A 3.46 3.42 35.8 0 1 52.29 169.53
  Q 57.81 169.35 58.50 169.35
  Q 96.16 169.50 144.00 169.37
  Q 151.13 169.35 153.90 174.21
  Q 155.47 176.96 155.47 185.54
  Q 155.46 203.17 155.44 220.74
  Z
  M 135.41 189.91
  A 0.31 0.31 0.0 0 0 135.10 189.60
  L 64.12 189.60
  A 0.31 0.31 0.0 0 0 63.81 189.91
  L 63.81 594.75
  A 0.31 0.31 0.0 0 0 64.12 595.06
  L 135.10 595.06
  A 0.31 0.31 0.0 0 0 135.41 594.75
  L 135.41 189.91
  Z"
/>
<path fill="#1a1f20" d="
  M 664.67 269.25
  L 664.52 255.56
  L 664.52 234.22
  L 664.67 220.75
  Q 664.63 202.97 664.67 185.15
  Q 664.68 176.86 666.02 174.62
  C 668.84 169.87 672.65 169.37 678.58 169.40
  Q 705.65 169.53 763.51 169.41
  Q 768.65 169.40 770.76 170.49
  C 775.79 173.11 776.50 177.90 776.49 183.50
  Q 776.19 513.22 776.46 599.50
  C 776.47 601.54 776.60 606.20 775.56 608.73
  Q 772.87 615.30 765.49 615.28
  Q 724.07 615.17 678.61 615.29
  C 672.01 615.31 667.45 614.49 665.38 608.26
  Q 664.42 605.40 664.43 600.50
  Q 664.67 434.63 664.67 269.25
  Z
  M 756.19 190.01
  A 0.41 0.41 0.0 0 0 755.78 189.60
  L 685.10 189.60
  A 0.41 0.41 0.0 0 0 684.69 190.01
  L 684.69 594.65
  A 0.41 0.41 0.0 0 0 685.10 595.06
  L 755.78 595.06
  A 0.41 0.41 0.0 0 0 756.19 594.65
  L 756.19 190.01
  Z"
/>
<rect fill="none" x="63.81" y="189.60" width="71.60" height="405.46" rx="0.31"/>
<rect fill="none" x="684.69" y="189.60" width="71.50" height="405.46" rx="0.41"/>
<path fill="#2b68d5" d="
  M 664.67 220.75
  L 664.52 234.22
  L 155.47 234.23
  L 155.44 220.74
  L 664.67 220.75
  Z"
/>
<!-- background removed -->
<path fill="#2b68d5" d="
  M 664.52 255.56
  L 664.67 269.25
  L 155.44 269.01
  L 155.49 255.56
  L 664.52 255.56
  Z"
/>
</svg>
