<?xml version="1.0" encoding="UTF-8" standalone="no"?>
<!DOCTYPE svg PUBLIC "-//W3C//DTD SVG 1.1//EN" "http://www.w3.org/Graphics/SVG/1.1/DTD/svg11.dtd">
<svg xmlns="http://www.w3.org/2000/svg" version="1.1" viewBox="0.00 0.00 949.00 146.00">
<!-- outline strokes removed -->
<!-- background removed -->
<path fill="currentColor" d="
  M 0.00 24.30
  L 0.00 22.41
  L 14.65 22.37
  A 0.41 0.40 -8.7 0 1 15.04 22.65
  L 40.99 102.18
  A 0.33 0.33 0.0 0 0 41.62 102.18
  L 67.32 23.12
  A 1.18 1.17 -81.2 0 1 68.44 22.30
  L 80.93 22.30
  A 0.55 0.54 -8.7 0 1 81.45 22.68
  L 107.32 101.99
  A 0.41 0.40 44.9 0 0 108.09 101.99
  L 140.77 1.43
  A 1.19 1.19 0.0 0 1 141.90 0.61
  L 155.28 0.61
  A 0.36 0.36 0.0 0 1 155.62 1.07
  L 115.94 123.15
  A 0.91 0.91 0.0 0 1 115.08 123.77
  L 100.34 123.77
  A 0.60 0.59 -8.6 0 1 99.77 123.36
  L 74.32 45.37
  A 0.04 0.04 0.0 0 0 74.25 45.37
  L 49.04 123.41
  A 0.62 0.62 0.0 0 1 48.45 123.84
  L 33.74 123.84
  A 1.17 1.17 0.0 0 1 32.63 123.03
  L 0.00 24.30
  Z"
/>
<path fill="currentColor" d="
  M 210.93 21.36
  C 240.36 24.73 259.95 49.78 256.61 78.93
  C 253.27 108.08 228.52 128.04 199.09 124.67
  C 169.66 121.30 150.07 96.25 153.41 67.10
  C 156.75 37.95 181.50 17.98 210.93 21.36
  Z
  M 168.18 73.86
  C 168.69 94.85 183.93 111.89 205.87 111.35
  C 227.82 110.82 242.21 93.06 241.70 72.06
  C 241.19 51.07 225.95 34.03 204.00 34.57
  C 182.06 35.10 167.67 52.86 168.18 73.86
  Z"
/>
<path fill="currentColor" d="
  M 780.81 73.05
  C 780.89 98.17 801.14 115.28 825.81 110.54
  Q 837.40 108.31 845.52 98.72
  A 0.56 0.55 -47.7 0 1 846.34 98.68
  L 855.17 107.52
  A 0.66 0.66 0.0 0 1 855.20 108.43
  Q 844.28 120.79 828.31 123.86
  C 810.63 127.26 790.64 121.89 778.61 108.00
  C 769.95 98.00 765.90 86.31 765.85 73.09
  C 765.81 59.88 769.78 48.16 778.38 38.11
  C 790.32 24.14 810.27 18.64 827.98 21.92
  Q 843.97 24.89 854.97 37.17
  A 0.66 0.66 0.0 0 1 854.94 38.08
  L 846.17 46.98
  A 0.56 0.55 47.3 0 1 845.35 46.95
  Q 837.17 37.41 825.56 35.26
  C 800.87 30.68 780.72 47.92 780.81 73.05
  Z"
/>
<path fill="currentColor" d="
  M 275.03 123.78
  A 0.40 0.39 -90.0 0 1 274.64 123.38
  L 274.64 22.78
  A 0.43 0.43 0.0 0 1 275.07 22.35
  Q 294.17 22.40 304.51 22.35
  Q 317.84 22.28 321.96 22.83
  C 342.09 25.49 354.73 38.28 353.70 59.25
  Q 352.65 80.41 333.25 88.49
  A 0.62 0.62 0.0 0 0 332.98 89.41
  L 356.01 123.12
  A 0.44 0.44 0.0 0 1 355.64 123.81
  L 340.19 123.81
  A 1.66 1.65 -16.5 0 1 338.80 123.06
  L 318.77 92.71
  A 1.39 1.38 -16.8 0 0 317.62 92.10
  L 289.97 92.10
  A 0.51 0.51 0.0 0 0 289.46 92.61
  L 289.46 123.20
  A 0.58 0.57 90.0 0 1 288.89 123.78
  L 275.03 123.78
  Z
  M 289.48 36.09
  L 289.40 78.25
  A 0.51 0.51 0.0 0 0 289.91 78.76
  L 317.02 78.81
  A 21.50 20.15 0.1 0 0 338.56 58.69
  L 338.56 55.81
  A 21.50 20.15 0.1 0 0 317.10 35.63
  L 289.99 35.58
  A 0.51 0.51 0.0 0 0 289.48 36.09
  Z"
/>
<path fill="currentColor" d="
  M 439.12 22.31
  L 456.13 22.31
  A 0.33 0.33 0.0 0 1 456.38 22.86
  L 415.12 67.29
  A 0.33 0.33 0.0 0 0 415.10 67.72
  L 474.95 144.76
  A 0.33 0.33 0.0 0 1 474.69 145.29
  L 457.66 145.29
  A 0.33 0.33 0.0 0 1 457.40 145.16
  L 405.54 78.41
  A 0.33 0.33 0.0 0 0 405.04 78.38
  L 387.31 97.48
  A 0.33 0.33 0.0 0 0 387.22 97.70
  L 387.22 123.45
  A 0.33 0.33 0.0 0 1 386.89 123.78
  L 372.84 123.78
  A 0.33 0.33 0.0 0 1 372.51 123.45
  L 372.51 22.69
  A 0.33 0.33 0.0 0 1 372.84 22.36
  L 386.88 22.36
  A 0.33 0.33 0.0 0 1 387.21 22.69
  L 387.21 77.23
  A 0.33 0.33 0.0 0 0 387.78 77.45
  L 438.88 22.42
  A 0.33 0.33 0.0 0 1 439.12 22.31
  Z"
/>
<path fill="currentColor" d="
  M 470.21 22.76
  A 0.41 0.41 0.0 0 1 470.62 22.35
  Q 485.86 22.35 515.75 22.35
  C 525.57 22.35 537.10 25.00 543.73 32.09
  C 552.00 40.94 552.12 57.92 543.34 66.42
  Q 540.61 69.06 538.04 70.50
  A 0.47 0.46 -46.1 0 0 538.05 71.32
  C 545.88 75.30 551.16 78.95 553.43 88.06
  C 555.03 94.48 554.72 102.87 551.76 108.78
  C 545.85 120.60 531.20 123.72 518.73 123.71
  Q 495.00 123.69 470.66 123.82
  A 0.45 0.44 0.0 0 1 470.21 123.38
  L 470.21 22.76
  Z
  M 484.76 35.30
  L 484.76 65.40
  A 0.41 0.41 0.0 0 0 485.17 65.81
  L 516.71 65.81
  A 18.07 14.02 -0.0 0 0 534.78 51.79
  L 534.78 48.91
  A 18.07 14.02 0.0 0 0 516.71 34.89
  L 485.17 34.89
  A 0.41 0.41 0.0 0 0 484.76 35.30
  Z
  M 484.75 78.67
  L 484.75 110.75
  A 0.27 0.27 0.0 0 0 485.02 111.02
  L 520.85 111.02
  A 18.72 14.82 -0.0 0 0 539.57 96.20
  L 539.57 93.22
  A 18.72 14.82 0.0 0 0 520.85 78.40
  L 485.02 78.40
  A 0.27 0.27 0.0 0 0 484.75 78.67
  Z"
/>
<path fill="currentColor" d="
  M 587.27 79.04
  L 587.27 110.00
  A 0.46 0.46 0.0 0 0 587.73 110.46
  L 644.04 110.46
  A 0.46 0.46 0.0 0 1 644.50 110.92
  L 644.50 123.32
  A 0.46 0.46 0.0 0 1 644.04 123.78
  L 573.12 123.78
  A 0.46 0.46 0.0 0 1 572.66 123.32
  L 572.66 22.80
  A 0.46 0.46 0.0 0 1 573.12 22.34
  L 641.84 22.34
  A 0.46 0.46 0.0 0 1 642.30 22.80
  L 642.30 35.08
  A 0.46 0.46 0.0 0 1 641.84 35.54
  L 587.73 35.54
  A 0.46 0.46 0.0 0 0 587.27 36.00
  L 587.27 64.90
  A 0.46 0.46 0.0 0 0 587.73 65.36
  L 635.87 65.36
  A 0.46 0.46 0.0 0 1 636.33 65.82
  L 636.33 78.12
  A 0.46 0.46 0.0 0 1 635.87 78.58
  L 587.73 78.58
  A 0.46 0.46 0.0 0 0 587.27 79.04
  Z"
/>
<path fill="currentColor" d="
  M 709.99 68.50
  Q 711.69 70.68 732.50 97.26
  A 0.21 0.21 0.0 0 0 732.87 97.13
  L 732.87 22.75
  A 0.42 0.41 90.0 0 1 733.28 22.33
  L 746.97 22.33
  A 0.47 0.46 -90.0 0 1 747.43 22.80
  L 747.43 123.35
  A 0.42 0.42 0.0 0 1 747.01 123.77
  L 735.27 123.77
  A 1.25 1.24 -18.9 0 1 734.29 123.29
  Q 701.76 81.74 698.51 77.59
  Q 696.82 75.41 676.01 48.83
  A 0.21 0.21 0.0 0 0 675.64 48.96
  L 675.64 123.34
  A 0.42 0.41 90.0 0 1 675.23 123.76
  L 661.54 123.76
  A 0.47 0.46 -90.0 0 1 661.08 123.29
  L 661.08 22.74
  A 0.42 0.42 0.0 0 1 661.50 22.32
  L 673.24 22.32
  A 1.25 1.24 -18.9 0 1 674.22 22.80
  Q 706.75 64.35 709.99 68.50
  Z"
/>
<path fill="currentColor" d="
  M 908.21 65.11
  Q 933.04 65.10 933.50 65.09
  A 0.45 0.45 0.0 0 0 933.95 64.64
  L 933.95 22.92
  A 0.56 0.56 0.0 0 1 934.51 22.36
  L 948.07 22.36
  A 0.52 0.52 0.0 0 1 948.59 22.88
  L 948.59 123.39
  A 0.39 0.39 0.0 0 1 948.20 123.78
  L 934.63 123.78
  A 0.69 0.69 0.0 0 1 933.94 123.09
  L 933.94 78.93
  A 0.33 0.33 0.0 0 0 933.62 78.60
  Q 933.03 78.59 908.21 78.59
  Q 883.40 78.59 882.80 78.60
  A 0.33 0.33 0.0 0 0 882.48 78.93
  L 882.49 123.09
  A 0.69 0.69 0.0 0 1 881.80 123.78
  L 868.23 123.79
  A 0.39 0.39 0.0 0 1 867.84 123.40
  L 867.83 22.89
  A 0.52 0.52 0.0 0 1 868.35 22.37
  L 881.91 22.36
  A 0.56 0.56 0.0 0 1 882.47 22.92
  L 882.47 64.64
  A 0.45 0.45 0.0 0 0 882.92 65.10
  Q 883.39 65.11 908.21 65.11
  Z"
/>
<!-- background removed -->
<!-- background removed -->
<!-- background removed -->
<!-- background removed -->
</svg>
